<svg width="186" height="440" viewBox="0 0 186 440" fill="none" xmlns="http://www.w3.org/2000/svg">
<mask id="mask0_1806_21759" style="mask-type:alpha" maskUnits="userSpaceOnUse" x="0" y="0" width="186" height="440">
<rect width="186" height="440" fill="#C4C4C4"/>
</mask>
<g mask="url(#mask0_1806_21759)">
<path d="M84.4971 139H64.0303V134.939L73.6895 124.645C75.0156 123.195 75.9932 121.931 76.6221 120.851C77.2646 119.771 77.5859 118.745 77.5859 117.774C77.5859 116.448 77.251 115.409 76.5811 114.657C75.9111 113.892 74.9541 113.509 73.71 113.509C72.3701 113.509 71.3105 113.974 70.5312 114.903C69.7656 115.819 69.3828 117.029 69.3828 118.533H63.4355C63.4355 116.715 63.8662 115.054 64.7275 113.55C65.6025 112.046 66.833 110.87 68.4189 110.022C70.0049 109.161 71.8027 108.73 73.8125 108.73C76.8887 108.73 79.2744 109.469 80.9697 110.945C82.6787 112.422 83.5332 114.507 83.5332 117.2C83.5332 118.677 83.1504 120.181 82.3848 121.712C81.6191 123.243 80.3066 125.027 78.4473 127.064L71.6592 134.222H84.4971V139ZM108.245 126.654C108.245 130.783 107.391 133.941 105.682 136.129C103.973 138.316 101.471 139.41 98.1758 139.41C94.9219 139.41 92.4336 138.337 90.7109 136.19C88.9883 134.044 88.1064 130.968 88.0654 126.962V121.466C88.0654 117.296 88.9268 114.131 90.6494 111.971C92.3857 109.811 94.8809 108.73 98.1348 108.73C101.389 108.73 103.877 109.804 105.6 111.95C107.322 114.083 108.204 117.152 108.245 121.158V126.654ZM102.318 120.625C102.318 118.15 101.977 116.353 101.293 115.231C100.623 114.097 99.5703 113.529 98.1348 113.529C96.7402 113.529 95.708 114.069 95.0381 115.149C94.3818 116.216 94.0332 117.891 93.9922 120.174V127.434C93.9922 129.867 94.3203 131.679 94.9766 132.868C95.6465 134.044 96.7129 134.632 98.1758 134.632C99.625 134.632 100.671 134.064 101.313 132.93C101.956 131.795 102.291 130.059 102.318 127.721V120.625ZM126.661 139H120.734V116.154L113.659 118.349V113.529L126.025 109.1H126.661V139ZM150.778 139H144.852V116.154L137.776 118.349V113.529L150.143 109.1H150.778V139Z" fill="#0086FF"/>
<path d="M76.6973 29H63.6543V27.1816L70.5449 19.5254C71.5658 18.3678 72.2676 17.429 72.6504 16.709C73.0423 15.9798 73.2383 15.2279 73.2383 14.4531C73.2383 13.4141 72.9238 12.5618 72.2949 11.8965C71.666 11.2311 70.8275 10.8984 69.7793 10.8984C68.5215 10.8984 67.5417 11.2585 66.8398 11.9785C66.1471 12.6895 65.8008 13.6829 65.8008 14.959H63.2715C63.2715 13.127 63.8594 11.6458 65.0352 10.5156C66.2201 9.38542 67.8014 8.82031 69.7793 8.82031C71.6296 8.82031 73.0924 9.30794 74.168 10.2832C75.2435 11.2493 75.7812 12.5391 75.7812 14.1523C75.7812 16.112 74.5326 18.4453 72.0352 21.1523L66.7031 26.9355H76.6973V29ZM91.8594 20.5098C91.8594 23.472 91.3535 25.6732 90.3418 27.1133C89.3301 28.5534 87.7487 29.2734 85.5977 29.2734C83.474 29.2734 81.9017 28.5716 80.8809 27.168C79.86 25.7552 79.3314 23.6497 79.2949 20.8516V17.4746C79.2949 14.5488 79.8008 12.375 80.8125 10.9531C81.8242 9.53125 83.4102 8.82031 85.5703 8.82031C87.7122 8.82031 89.2891 9.50846 90.3008 10.8848C91.3125 12.252 91.832 14.3665 91.8594 17.2285V20.5098ZM89.3301 17.0508C89.3301 14.9089 89.0293 13.3503 88.4277 12.375C87.8262 11.3906 86.8737 10.8984 85.5703 10.8984C84.276 10.8984 83.3327 11.3861 82.7402 12.3613C82.1478 13.3366 81.8424 14.8359 81.8242 16.8594V20.9062C81.8242 23.0573 82.1341 24.6478 82.7539 25.6777C83.3828 26.6986 84.3307 27.209 85.5977 27.209C86.8464 27.209 87.7715 26.7259 88.373 25.7598C88.9837 24.7936 89.3027 23.2715 89.3301 21.1934V17.0508ZM107.582 20.5098C107.582 23.472 107.076 25.6732 106.064 27.1133C105.053 28.5534 103.471 29.2734 101.32 29.2734C99.1966 29.2734 97.6243 28.5716 96.6035 27.168C95.5827 25.7552 95.054 23.6497 95.0176 20.8516V17.4746C95.0176 14.5488 95.5234 12.375 96.5352 10.9531C97.5469 9.53125 99.1328 8.82031 101.293 8.82031C103.435 8.82031 105.012 9.50846 106.023 10.8848C107.035 12.252 107.555 14.3665 107.582 17.2285V20.5098ZM105.053 17.0508C105.053 14.9089 104.752 13.3503 104.15 12.375C103.549 11.3906 102.596 10.8984 101.293 10.8984C99.9987 10.8984 99.0553 11.3861 98.4629 12.3613C97.8704 13.3366 97.5651 14.8359 97.5469 16.8594V20.9062C97.5469 23.0573 97.8568 24.6478 98.4766 25.6777C99.1055 26.6986 100.053 27.209 101.32 27.209C102.569 27.209 103.494 26.7259 104.096 25.7598C104.706 24.7936 105.025 23.2715 105.053 21.1934V17.0508ZM122.895 14.2891C122.895 15.2826 122.63 16.1667 122.102 16.9414C121.582 17.7161 120.876 18.3223 119.982 18.7598C121.021 19.2064 121.842 19.8581 122.443 20.7148C123.054 21.5716 123.359 22.5423 123.359 23.627C123.359 25.3496 122.776 26.7214 121.609 27.7422C120.452 28.763 118.925 29.2734 117.029 29.2734C115.115 29.2734 113.579 28.763 112.422 27.7422C111.273 26.7122 110.699 25.3405 110.699 23.627C110.699 22.5514 110.991 21.5807 111.574 20.7148C112.167 19.849 112.982 19.1927 114.021 18.7461C113.137 18.3086 112.44 17.7025 111.93 16.9277C111.419 16.153 111.164 15.2734 111.164 14.2891C111.164 12.612 111.702 11.2812 112.777 10.2969C113.853 9.3125 115.27 8.82031 117.029 8.82031C118.779 8.82031 120.192 9.3125 121.268 10.2969C122.352 11.2812 122.895 12.612 122.895 14.2891ZM120.83 23.5723C120.83 22.4603 120.475 21.5534 119.764 20.8516C119.062 20.1497 118.141 19.7988 117.002 19.7988C115.863 19.7988 114.947 20.1452 114.254 20.8379C113.57 21.5306 113.229 22.4421 113.229 23.5723C113.229 24.7025 113.561 25.5911 114.227 26.2383C114.901 26.8854 115.835 27.209 117.029 27.209C118.214 27.209 119.144 26.8854 119.818 26.2383C120.493 25.582 120.83 24.6934 120.83 23.5723ZM117.029 10.8984C116.036 10.8984 115.229 11.2083 114.609 11.8281C113.999 12.4388 113.693 13.2728 113.693 14.3301C113.693 15.3418 113.994 16.1621 114.596 16.791C115.206 17.4108 116.018 17.7207 117.029 17.7207C118.041 17.7207 118.848 17.4108 119.449 16.791C120.06 16.1621 120.365 15.3418 120.365 14.3301C120.365 13.3184 120.051 12.4935 119.422 11.8555C118.793 11.2174 117.995 10.8984 117.029 10.8984Z" fill="#B3B3B3"/>
<path d="M76.6973 239H63.6543V237.182L70.5449 229.525C71.5658 228.368 72.2676 227.429 72.6504 226.709C73.0423 225.98 73.2383 225.228 73.2383 224.453C73.2383 223.414 72.9238 222.562 72.2949 221.896C71.666 221.231 70.8275 220.898 69.7793 220.898C68.5215 220.898 67.5417 221.258 66.8398 221.979C66.1471 222.689 65.8008 223.683 65.8008 224.959H63.2715C63.2715 223.127 63.8594 221.646 65.0352 220.516C66.2201 219.385 67.8014 218.82 69.7793 218.82C71.6296 218.82 73.0924 219.308 74.168 220.283C75.2435 221.249 75.7812 222.539 75.7812 224.152C75.7812 226.112 74.5326 228.445 72.0352 231.152L66.7031 236.936H76.6973V239ZM91.8594 230.51C91.8594 233.472 91.3535 235.673 90.3418 237.113C89.3301 238.553 87.7487 239.273 85.5977 239.273C83.474 239.273 81.9017 238.572 80.8809 237.168C79.86 235.755 79.3314 233.65 79.2949 230.852V227.475C79.2949 224.549 79.8008 222.375 80.8125 220.953C81.8242 219.531 83.4102 218.82 85.5703 218.82C87.7122 218.82 89.2891 219.508 90.3008 220.885C91.3125 222.252 91.832 224.367 91.8594 227.229V230.51ZM89.3301 227.051C89.3301 224.909 89.0293 223.35 88.4277 222.375C87.8262 221.391 86.8737 220.898 85.5703 220.898C84.276 220.898 83.3327 221.386 82.7402 222.361C82.1478 223.337 81.8424 224.836 81.8242 226.859V230.906C81.8242 233.057 82.1341 234.648 82.7539 235.678C83.3828 236.699 84.3307 237.209 85.5977 237.209C86.8464 237.209 87.7715 236.726 88.373 235.76C88.9837 234.794 89.3027 233.271 89.3301 231.193V227.051ZM103.412 239H100.869V222.143L95.7695 224.016V221.719L103.016 218.998H103.412V239ZM120.748 219.08V221.227H120.283C118.314 221.263 116.747 221.846 115.58 222.977C114.413 224.107 113.739 225.697 113.557 227.748C114.605 226.545 116.036 225.943 117.85 225.943C119.581 225.943 120.962 226.554 121.992 227.775C123.031 228.997 123.551 230.574 123.551 232.506C123.551 234.557 122.99 236.197 121.869 237.428C120.757 238.658 119.262 239.273 117.385 239.273C115.48 239.273 113.935 238.544 112.75 237.086C111.565 235.618 110.973 233.732 110.973 231.426V230.455C110.973 226.791 111.752 223.993 113.311 222.061C114.878 220.119 117.207 219.126 120.297 219.08H120.748ZM117.426 228.049C116.56 228.049 115.762 228.309 115.033 228.828C114.304 229.348 113.798 229.999 113.516 230.783V231.713C113.516 233.354 113.885 234.675 114.623 235.678C115.361 236.68 116.282 237.182 117.385 237.182C118.524 237.182 119.417 236.762 120.064 235.924C120.721 235.085 121.049 233.987 121.049 232.629C121.049 231.262 120.716 230.159 120.051 229.32C119.395 228.473 118.52 228.049 117.426 228.049Z" fill="#B3B3B3"/>
<path d="M76.6973 336H63.6543V334.182L70.5449 326.525C71.5658 325.368 72.2676 324.429 72.6504 323.709C73.0423 322.98 73.2383 322.228 73.2383 321.453C73.2383 320.414 72.9238 319.562 72.2949 318.896C71.666 318.231 70.8275 317.898 69.7793 317.898C68.5215 317.898 67.5417 318.258 66.8398 318.979C66.1471 319.689 65.8008 320.683 65.8008 321.959H63.2715C63.2715 320.127 63.8594 318.646 65.0352 317.516C66.2201 316.385 67.8014 315.82 69.7793 315.82C71.6296 315.82 73.0924 316.308 74.168 317.283C75.2435 318.249 75.7812 319.539 75.7812 321.152C75.7812 323.112 74.5326 325.445 72.0352 328.152L66.7031 333.936H76.6973V336ZM91.8594 327.51C91.8594 330.472 91.3535 332.673 90.3418 334.113C89.3301 335.553 87.7487 336.273 85.5977 336.273C83.474 336.273 81.9017 335.572 80.8809 334.168C79.86 332.755 79.3314 330.65 79.2949 327.852V324.475C79.2949 321.549 79.8008 319.375 80.8125 317.953C81.8242 316.531 83.4102 315.82 85.5703 315.82C87.7122 315.82 89.2891 316.508 90.3008 317.885C91.3125 319.252 91.832 321.367 91.8594 324.229V327.51ZM89.3301 324.051C89.3301 321.909 89.0293 320.35 88.4277 319.375C87.8262 318.391 86.8737 317.898 85.5703 317.898C84.276 317.898 83.3327 318.386 82.7402 319.361C82.1478 320.337 81.8424 321.836 81.8242 323.859V327.906C81.8242 330.057 82.1341 331.648 82.7539 332.678C83.3828 333.699 84.3307 334.209 85.5977 334.209C86.8464 334.209 87.7715 333.726 88.373 332.76C88.9837 331.794 89.3027 330.271 89.3301 328.193V324.051ZM103.412 336H100.869V319.143L95.7695 321.016V318.719L103.016 315.998H103.412V336ZM122.895 321.289C122.895 322.283 122.63 323.167 122.102 323.941C121.582 324.716 120.876 325.322 119.982 325.76C121.021 326.206 121.842 326.858 122.443 327.715C123.054 328.572 123.359 329.542 123.359 330.627C123.359 332.35 122.776 333.721 121.609 334.742C120.452 335.763 118.925 336.273 117.029 336.273C115.115 336.273 113.579 335.763 112.422 334.742C111.273 333.712 110.699 332.34 110.699 330.627C110.699 329.551 110.991 328.581 111.574 327.715C112.167 326.849 112.982 326.193 114.021 325.746C113.137 325.309 112.44 324.702 111.93 323.928C111.419 323.153 111.164 322.273 111.164 321.289C111.164 319.612 111.702 318.281 112.777 317.297C113.853 316.312 115.27 315.82 117.029 315.82C118.779 315.82 120.192 316.312 121.268 317.297C122.352 318.281 122.895 319.612 122.895 321.289ZM120.83 330.572C120.83 329.46 120.475 328.553 119.764 327.852C119.062 327.15 118.141 326.799 117.002 326.799C115.863 326.799 114.947 327.145 114.254 327.838C113.57 328.531 113.229 329.442 113.229 330.572C113.229 331.702 113.561 332.591 114.227 333.238C114.901 333.885 115.835 334.209 117.029 334.209C118.214 334.209 119.144 333.885 119.818 333.238C120.493 332.582 120.83 331.693 120.83 330.572ZM117.029 317.898C116.036 317.898 115.229 318.208 114.609 318.828C113.999 319.439 113.693 320.273 113.693 321.33C113.693 322.342 113.994 323.162 114.596 323.791C115.206 324.411 116.018 324.721 117.029 324.721C118.041 324.721 118.848 324.411 119.449 323.791C120.06 323.162 120.365 322.342 120.365 321.33C120.365 320.318 120.051 319.493 119.422 318.855C118.793 318.217 117.995 317.898 117.029 317.898Z" fill="#B3B3B3"/>
<path d="M76.6973 433H63.6543V431.182L70.5449 423.525C71.5658 422.368 72.2676 421.429 72.6504 420.709C73.0423 419.98 73.2383 419.228 73.2383 418.453C73.2383 417.414 72.9238 416.562 72.2949 415.896C71.666 415.231 70.8275 414.898 69.7793 414.898C68.5215 414.898 67.5417 415.258 66.8398 415.979C66.1471 416.689 65.8008 417.683 65.8008 418.959H63.2715C63.2715 417.127 63.8594 415.646 65.0352 414.516C66.2201 413.385 67.8014 412.82 69.7793 412.82C71.6296 412.82 73.0924 413.308 74.168 414.283C75.2435 415.249 75.7812 416.539 75.7812 418.152C75.7812 420.112 74.5326 422.445 72.0352 425.152L66.7031 430.936H76.6973V433ZM91.8594 424.51C91.8594 427.472 91.3535 429.673 90.3418 431.113C89.3301 432.553 87.7487 433.273 85.5977 433.273C83.474 433.273 81.9017 432.572 80.8809 431.168C79.86 429.755 79.3314 427.65 79.2949 424.852V421.475C79.2949 418.549 79.8008 416.375 80.8125 414.953C81.8242 413.531 83.4102 412.82 85.5703 412.82C87.7122 412.82 89.2891 413.508 90.3008 414.885C91.3125 416.252 91.832 418.367 91.8594 421.229V424.51ZM89.3301 421.051C89.3301 418.909 89.0293 417.35 88.4277 416.375C87.8262 415.391 86.8737 414.898 85.5703 414.898C84.276 414.898 83.3327 415.386 82.7402 416.361C82.1478 417.337 81.8424 418.836 81.8242 420.859V424.906C81.8242 427.057 82.1341 428.648 82.7539 429.678C83.3828 430.699 84.3307 431.209 85.5977 431.209C86.8464 431.209 87.7715 430.726 88.373 429.76C88.9837 428.794 89.3027 427.271 89.3301 425.193V421.051ZM103.412 433H100.869V416.143L95.7695 418.016V415.719L103.016 412.998H103.412V433ZM120.516 424.25C119.987 424.879 119.354 425.385 118.615 425.768C117.886 426.15 117.084 426.342 116.209 426.342C115.061 426.342 114.058 426.059 113.201 425.494C112.354 424.929 111.697 424.136 111.232 423.115C110.768 422.085 110.535 420.951 110.535 419.711C110.535 418.38 110.786 417.182 111.287 416.115C111.798 415.049 112.518 414.233 113.447 413.668C114.377 413.103 115.462 412.82 116.701 412.82C118.67 412.82 120.219 413.559 121.35 415.035C122.489 416.503 123.059 418.508 123.059 421.051V421.789C123.059 425.663 122.293 428.493 120.762 430.279C119.23 432.057 116.92 432.968 113.83 433.014H113.338V430.881H113.871C115.958 430.844 117.562 430.302 118.684 429.254C119.805 428.197 120.415 426.529 120.516 424.25ZM116.619 424.25C117.467 424.25 118.246 423.99 118.957 423.471C119.677 422.951 120.201 422.309 120.529 421.543V420.531C120.529 418.872 120.169 417.523 119.449 416.484C118.729 415.445 117.818 414.926 116.715 414.926C115.603 414.926 114.71 415.354 114.035 416.211C113.361 417.059 113.023 418.18 113.023 419.574C113.023 420.932 113.347 422.053 113.994 422.938C114.65 423.812 115.525 424.25 116.619 424.25Z" fill="#B3B3B3"/>
<line x1="28.5" y1="440" x2="28.5" stroke="#D0D0D0" stroke-linejoin="round" stroke-dasharray="1 4"/>
<circle cx="29" cy="125" r="9" fill="#0086FF"/>
<circle cx="29" cy="20" r="4" fill="#D0D0D0"/>
<circle cx="29" cy="230" r="4" fill="#D0D0D0"/>
<circle cx="29" cy="327" r="4" fill="#D0D0D0"/>
<circle cx="29" cy="424" r="4" fill="#D0D0D0"/>
</g>
</svg>
